<svg version="1.1" id="Layer_1" xmlns="http://www.w3.org/2000/svg" xmlns:xlink="http://www.w3.org/1999/xlink" x="0px" y="0px"
	 width="100%" viewBox="0 0 496 496" enable-background="new 0 0 496 496" xml:space="preserve">
<path fill="#000000" opacity="1.000000" stroke="none" 
	d="
M192.280609,164.773895 
	C201.477310,179.843109 210.485626,194.602463 219.831528,209.914902 
	C227.379715,203.472534 235.381348,198.933456 244.352875,196.096344 
	C259.194855,191.402771 274.302673,190.096191 289.660187,192.392761 
	C292.903900,192.877808 294.178986,191.339218 295.547607,189.096497 
	C305.265625,173.171783 315.176971,157.361832 324.658478,141.297958 
	C327.509857,136.467056 330.635834,133.866852 336.508118,134.571457 
	C340.944122,135.103729 345.493958,134.670929 349.992798,134.707657 
	C351.149872,134.717102 352.425140,134.717743 352.890594,136.117722 
	C353.318970,137.406143 352.850067,138.582962 351.643616,139.026108 
	C339.673248,143.423416 338.706329,154.044632 338.453430,164.141769 
	C337.865356,187.623352 338.154633,211.126862 338.082153,234.621460 
	C338.061432,241.334015 338.051208,241.392197 331.501648,241.344406 
	C319.202148,241.254684 320.861969,242.761322 320.813019,230.801132 
	C320.727753,209.971756 320.791626,189.141769 320.711151,168.312363 
	C320.703339,166.287292 321.462280,163.979813 319.547729,162.247223 
	C317.729156,162.627502 317.295807,164.244370 316.544556,165.444458 
	C311.152618,174.058365 305.829865,182.715607 300.493164,191.364029 
	C299.438904,193.072540 298.279083,194.620499 300.385468,196.603088 
	C303.406219,199.446304 302.518433,202.559250 300.435364,205.597916 
	C296.879303,210.785263 292.104431,214.849945 286.906464,218.028656 
	C282.933075,220.458511 280.654694,223.782852 278.397522,227.433731 
	C276.119690,231.118027 273.780365,234.766022 271.580017,238.496017 
	C269.959473,241.243195 267.861633,242.077316 264.158997,240.365967 
	C271.984283,227.536560 279.722778,214.849472 287.182831,202.618881 
	C286.626526,200.958740 285.904236,200.570007 285.065796,200.405701 
	C268.613983,197.181686 252.339462,197.139359 236.430527,203.222229 
	C232.178864,204.847885 228.473312,207.338409 225.117554,210.421707 
	C222.790894,212.559464 222.404388,214.482162 224.282684,217.312012 
	C228.241638,223.276611 231.834915,229.484711 235.546951,235.611832 
	C236.470200,237.135712 237.848389,238.514557 237.354645,241.240692 
	C230.868500,241.240692 224.231522,241.743729 217.718857,241.061096 
	C213.486694,240.617493 212.690857,236.109726 211.930618,232.589630 
	C211.431381,230.277924 210.914825,228.091370 209.672775,226.069046 
	C197.206543,205.771484 184.759216,185.462311 172.297531,165.161942 
	C171.696594,164.182999 171.011520,163.255707 169.297363,162.357513 
	C169.297363,165.030914 169.297012,167.704300 169.297409,170.377701 
	C169.300598,191.707275 169.306076,213.036850 169.302643,234.366425 
	C169.302414,235.864975 169.283859,237.366486 169.189865,238.861343 
	C169.068634,240.789688 167.787628,241.285294 166.088181,241.281128 
	C164.377502,241.276947 163.109406,240.706757 162.956940,238.834915 
	C162.821976,237.177933 162.817978,235.507614 162.813950,233.843048 
	C162.760315,211.680695 162.689575,189.518311 162.692200,167.355942 
	C162.692764,162.487198 161.858994,157.763153 160.763763,153.062302 
	C159.335007,146.929840 156.542374,141.830582 150.213562,139.513351 
	C148.860748,139.018036 147.754868,138.353134 147.959885,136.693283 
	C148.221283,134.576981 149.936127,134.716705 151.392532,134.705627 
	C157.890930,134.656158 164.391098,134.747086 170.887955,134.633987 
	C173.493164,134.588638 174.750275,136.093567 175.927200,138.029022 
	C181.293579,146.854050 186.700134,155.654648 192.280609,164.773895 
M289.024445,211.658020 
	C291.420624,210.141937 293.979706,208.726471 293.257935,204.496735 
	C290.810669,206.640167 289.604584,208.844345 289.024445,211.658020 
z"/>
<path fill="#000000" opacity="1.000000" stroke="none" 
	d="
M319.239410,318.080414 
	C321.595947,306.658142 320.687866,295.479858 320.671051,284.358826 
	C320.664490,280.007690 322.031769,278.475739 326.421722,278.619141 
	C339.415100,279.043610 337.891479,276.742493 338.128601,290.397766 
	C338.281281,299.191193 337.513763,308.023438 339.272247,316.761963 
	C340.236633,321.554382 342.014282,325.650940 346.825623,327.758270 
	C348.093628,328.313629 349.256622,329.150665 348.892700,330.759064 
	C348.500397,332.492828 346.919983,332.324799 345.637695,332.328583 
	C334.817810,332.360535 323.997711,332.361664 313.177856,332.325806 
	C311.888824,332.321533 310.357452,332.396301 310.019775,330.614288 
	C309.709045,328.974609 310.829926,328.205719 312.107086,327.632843 
	C316.103241,325.840393 318.096832,322.532410 319.239410,318.080414 
z"/>
<path fill="#000000" opacity="1.000000" stroke="none" 
	d="
M227.563202,310.166992 
	C242.505035,314.012146 263.494934,300.509155 266.893890,285.531555 
	C267.447601,283.091644 266.114380,278.979919 270.869110,278.700958 
	C274.318085,278.498566 275.928619,279.508270 274.768829,283.320709 
	C271.411407,294.357361 264.034851,302.040619 254.211258,307.360626 
	C233.418518,318.621094 211.550110,318.809204 189.327805,312.591370 
	C185.904099,311.633423 181.288849,310.458252 182.305298,305.178223 
	C183.078903,301.159668 189.013885,298.307373 193.842758,299.685883 
	C202.795868,302.241760 211.634781,305.197418 220.523422,307.979675 
	C222.743576,308.674591 224.972000,309.343109 227.563202,310.166992 
z"/>
<path fill="#000000" opacity="1.000000" stroke="none" 
	d="
M173.854401,320.045471 
	C176.062195,323.807587 178.949387,326.192535 182.718414,327.525391 
	C184.289169,328.080841 186.219025,328.576599 185.849213,330.739288 
	C185.505798,332.747589 183.554764,332.333069 182.147858,332.341431 
	C173.316727,332.394135 164.484955,332.401031 155.653885,332.345947 
	C154.254715,332.337219 152.464432,332.672150 151.999100,330.621124 
	C151.691620,329.265900 152.493668,328.386169 153.620514,327.843140 
	C161.618256,323.989319 162.081360,316.339691 162.546936,309.089111 
	C163.079926,300.789001 162.720947,292.433380 162.825363,284.102844 
	C162.855484,281.698578 162.286148,278.722443 166.244965,278.796143 
	C169.951691,278.865143 169.200287,281.705872 169.280762,283.895905 
	C169.573776,291.869263 168.822189,299.862549 170.203018,307.822784 
	C170.920151,311.956970 171.764099,315.976379 173.854401,320.045471 
z"/>
<path fill="#000000" opacity="1.000000" stroke="none" 
	d="
M155.792725,259.229614 
	C155.657303,261.692383 155.695312,263.803925 156.569717,265.700500 
	C154.907089,266.636261 153.665604,266.439545 152.364853,265.777863 
	C151.910080,263.837585 153.352997,261.918732 152.464294,259.848175 
	C150.383514,260.587494 150.752274,263.831451 148.034058,264.068970 
	C145.926712,263.878418 145.931122,260.986328 143.992966,260.240814 
	C142.772736,262.127136 143.840302,263.811554 144.244965,265.381897 
	C142.955765,266.706573 141.744263,266.335327 140.245560,265.659668 
	C140.333115,261.527222 141.423294,257.246368 139.735077,253.154953 
	C142.517975,252.138397 142.517975,252.138397 147.873291,259.032623 
	C151.376129,257.869568 150.711319,251.148972 156.449738,252.410278 
	C156.205475,254.738480 155.987732,256.814026 155.792725,259.229614 
z"/>
<path fill="#000000" opacity="1.000000" stroke="none" 
	d="
M288.094116,260.860229 
	C287.117401,262.306366 286.629761,263.867493 284.819214,264.087677 
	C282.538269,263.576904 282.481476,261.050507 280.920959,259.732849 
	C279.371704,261.818939 281.556885,263.706207 281.239960,265.664215 
	C279.878693,266.971191 278.450684,266.210510 276.758514,266.098297 
	C277.743988,261.549133 278.268524,257.182953 276.375153,252.948715 
	C278.722260,252.423157 278.722260,252.423157 284.955750,258.939697 
	C288.461670,258.020264 287.092560,250.515152 293.342560,252.739944 
	C292.118378,257.161041 291.792847,261.383881 293.284851,265.529694 
	C291.918121,267.027802 290.485046,266.148712 288.987885,266.130219 
	C288.763306,263.834045 290.433899,261.810028 289.231476,259.731079 
	C289.198181,259.673492 288.856659,259.693726 288.776245,259.783203 
	C288.559357,260.024536 288.406006,260.322937 288.094116,260.860229 
z"/>
<path fill="#000000" opacity="1.000000" stroke="none" 
	d="
M333.741638,263.983276 
	C334.133209,259.984680 333.848145,256.389832 333.365845,252.610779 
	C338.822449,251.282730 338.758667,257.403198 342.221558,258.558044 
	C344.083191,256.873993 342.151733,254.907455 342.497284,253.102051 
	C343.726044,251.726913 345.046478,251.855240 346.772308,252.968948 
	C345.771912,257.088501 346.960938,261.545929 345.457794,266.023743 
	C341.240326,265.495789 340.846130,260.837677 337.624237,259.440857 
	C336.535797,261.570496 337.559357,263.692108 337.514526,265.838440 
	C335.733734,266.168549 333.990417,267.199554 333.741638,263.983276 
z"/>
<path fill="#000000" opacity="1.000000" stroke="none" 
	d="
M191.318512,262.701843 
	C191.126404,265.907196 190.037247,267.095215 187.703705,264.803101 
	C186.065857,263.194336 184.783539,261.223602 183.188324,259.221039 
	C181.491074,261.462585 182.832962,263.518982 182.923126,265.541687 
	C181.872665,266.871063 180.600006,266.362915 178.979523,265.952362 
	C179.608490,261.643188 180.275742,257.268250 178.354584,252.484909 
	C184.258942,251.708115 184.483490,258.132477 188.228683,259.439514 
	C189.620026,257.130280 187.684906,255.059326 187.627563,252.938278 
	C189.085892,251.518982 190.396927,252.038422 191.327560,252.516098 
	C191.327560,256.027069 191.327560,259.147614 191.318512,262.701843 
z"/>
<path fill="#000000" opacity="1.000000" stroke="none" 
	d="
M170.968292,252.852844 
	C174.868057,256.821198 175.428345,261.432068 172.609283,264.481842 
	C169.975113,267.331635 166.892365,267.705963 163.688843,265.514862 
	C160.051636,263.027130 159.731812,259.344177 161.356033,255.806549 
	C163.159134,251.879364 166.637650,251.129776 170.968292,252.852844 
M170.936401,257.354950 
	C168.977463,254.602585 166.610107,254.335709 164.452469,256.839325 
	C162.732468,258.835175 163.014297,261.110046 165.133698,262.899323 
	C166.237869,263.831512 167.605072,263.990936 168.824707,263.359741 
	C170.964569,262.252258 171.711823,260.367157 170.936401,257.354950 
z"/>
<path fill="#000000" opacity="1.000000" stroke="none" 
	d="
M259.566101,263.220154 
	C260.824615,260.153412 261.929779,257.399963 263.085754,254.668015 
	C263.534668,253.607086 264.018097,252.420197 265.404053,252.390366 
	C266.791748,252.360474 267.361542,253.509598 267.800873,254.572632 
	C269.300262,258.200745 270.731873,261.856934 272.212036,265.559235 
	C270.356415,266.473907 268.967682,266.873932 267.928131,264.766785 
	C266.158295,261.179291 264.235870,262.046173 262.741791,264.915802 
	C261.895386,266.541382 260.751923,266.601746 259.508301,266.041046 
	C258.143616,265.425781 259.119263,264.397766 259.566101,263.220154 
z"/>
<path fill="#000000" opacity="1.000000" stroke="none" 
	d="
M221.937500,266.253235 
	C218.989059,263.807892 221.980652,262.162292 222.640564,260.414764 
	C223.696320,257.618988 223.810074,252.953110 227.075012,252.818298 
	C230.629135,252.671539 230.348526,257.482422 231.698181,260.127411 
	C232.567093,261.830261 233.799423,263.515106 233.458649,266.710876 
	C229.657608,263.864014 225.725266,260.805359 221.937500,266.253235 
z"/>
<path fill="#000000" opacity="1.000000" stroke="none" 
	d="
M319.802795,254.083344 
	C321.968475,251.253662 323.386688,252.447937 324.336731,254.621201 
	C325.855286,258.094940 327.172241,261.656830 328.651031,265.374054 
	C326.578949,266.763641 325.609711,266.357697 324.502106,264.166534 
	C323.180786,261.552582 320.794861,261.704712 319.546021,264.137360 
	C318.402588,266.364685 317.299133,266.529083 315.130981,265.584595 
	C316.686859,261.737762 318.167450,258.077057 319.802795,254.083344 
z"/>
<path fill="#000000" opacity="1.000000" stroke="none" 
	d="
M305.411011,252.934387 
	C307.456024,257.234741 309.219604,261.311707 310.983887,265.390198 
	C308.899658,266.587158 307.841766,266.380920 306.717346,264.407227 
	C305.043579,261.469238 302.904938,261.072113 301.552063,264.765869 
	C300.751404,266.951965 299.418152,266.268280 297.596405,265.814728 
	C298.534149,261.564728 300.526947,257.806976 302.321503,253.987534 
	C302.842682,252.878265 303.723694,252.099197 305.411011,252.934387 
z"/>
<path fill="#000000" opacity="1.000000" stroke="none" 
	d="
M214.069763,263.392700 
	C215.964523,263.097504 216.979568,263.743195 215.835587,265.144745 
	C214.008179,267.383575 211.438705,267.224915 209.032288,266.103882 
	C205.556091,264.484558 204.294861,261.448242 204.952972,257.896729 
	C205.632370,254.230270 208.224670,252.127502 211.964691,252.082321 
	C214.154175,252.055847 216.890457,251.993759 216.724365,255.530716 
	C216.717606,255.674744 216.576828,255.812469 216.289307,256.328644 
	C213.350220,255.896454 208.971375,253.059937 208.346939,259.045410 
	C207.964310,262.713104 210.251297,264.042572 214.069763,263.392700 
z"/>
<path fill="#000000" opacity="1.000000" stroke="none" 
	d="
M254.193497,254.532654 
	C253.552780,258.234924 251.001389,254.287308 249.711258,256.313477 
	C251.541580,258.779755 256.462250,260.279633 253.616287,264.777161 
	C252.361862,266.759583 250.193893,267.155121 247.869858,266.490356 
	C245.764374,265.888123 245.344101,264.638275 246.143158,262.726532 
	C247.775757,262.055786 249.385422,265.051819 251.235641,262.374969 
	C249.703552,259.537109 242.082733,258.398438 247.537399,253.073837 
	C249.637085,251.024216 252.383072,251.232300 254.193497,254.532654 
z"/>
<path fill="#000000" opacity="1.000000" stroke="none" 
	d="
M196.567291,263.913116 
	C197.115448,259.949554 196.791351,256.370026 196.458649,252.910553 
	C198.032379,251.731644 199.350418,251.725800 200.803604,253.071259 
	C200.210510,257.173950 199.931030,261.410889 201.014755,265.902679 
	C199.074707,266.089417 197.000458,267.719391 196.567291,263.913116 
z"/>
</svg>